<?xml version="1.0" encoding="UTF-8" standalone="no"?>
<!-- Created with Inkscape (http://www.inkscape.org/) -->

<svg
   width="1714"
   height="1314"
   viewBox="0 0 453.49583 347.6625"
   version="1.1"
   id="svg5"
   inkscape:version="1.1.2 (0a00cf5339, 2022-02-04)"
   sodipodi:docname="mock-template.svg"
   xmlns:inkscape="http://www.inkscape.org/namespaces/inkscape"
   xmlns:sodipodi="http://sodipodi.sourceforge.net/DTD/sodipodi-0.dtd"
   xmlns="http://www.w3.org/2000/svg"
   xmlns:svg="http://www.w3.org/2000/svg">
  <sodipodi:namedview
     id="namedview7"
     pagecolor="#ffffff"
     bordercolor="#66ff66"
     borderopacity="1"
     inkscape:pageshadow="2"
     inkscape:pageopacity="0"
     inkscape:pagecheckerboard="0"
     inkscape:document-units="px"
     showgrid="false"
     inkscape:showpageshadow="false"
     inkscape:zoom="0.52517324"
     inkscape:cx="654.06988"
     inkscape:cy="592.18554"
     inkscape:window-width="1919"
     inkscape:window-height="1530"
     inkscape:window-x="960"
     inkscape:window-y="32"
     inkscape:window-maximized="0"
     inkscape:current-layer="layer1"
     units="px"
     showguides="false"
     showborder="false"
     inkscape:snap-bbox="true"
     inkscape:bbox-paths="true"
     inkscape:snap-bbox-edge-midpoints="true"
     inkscape:bbox-nodes="true"
     inkscape:snap-bbox-midpoints="true"
     inkscape:object-paths="true"
     inkscape:snap-intersection-paths="true"
     inkscape:snap-smooth-nodes="true"
     inkscape:snap-midpoints="true"
     inkscape:snap-object-midpoints="true"
     inkscape:snap-center="true"
     inkscape:snap-text-baseline="true"
     inkscape:snap-page="true"
     inkscape:snap-global="true"
     inkscape:guide-bbox="true">
    <sodipodi:guide
       position="25.192417,316.24332"
       orientation="1,0"
       id="guide136328" />
    <sodipodi:guide
       position="64.879917,316.24332"
       orientation="1,0"
       id="guide136330" />
    <sodipodi:guide
       position="104.56742,316.24332"
       orientation="-1,0"
       id="guide136596"
       inkscape:label=""
       inkscape:locked="false"
       inkscape:color="rgb(0,0,255)" />
    <sodipodi:guide
       position="144.25492,316.24332"
       orientation="-1,0"
       id="guide136598"
       inkscape:label=""
       inkscape:locked="false"
       inkscape:color="rgb(0,0,255)" />
    <sodipodi:guide
       position="223.62992,316.24332"
       orientation="-1,0"
       id="guide136600"
       inkscape:label=""
       inkscape:locked="false"
       inkscape:color="rgb(0,0,255)" />
    <sodipodi:guide
       position="183.94242,316.24332"
       orientation="-1,0"
       id="guide136602"
       inkscape:label=""
       inkscape:locked="false"
       inkscape:color="rgb(0,0,255)" />
  </sodipodi:namedview>
  <defs
     id="defs2">
    <filter
       style="color-interpolation-filters:sRGB;"
       inkscape:label="Drop Shadow"
       id="filter9836"
       x="-0.056626761"
       y="-0.05660662"
       width="1.100023"
       height="1.1420208">
      <feFlood
         flood-opacity="0.498039"
         flood-color="rgb(0,0,0)"
         result="flood"
         id="feFlood9826" />
      <feComposite
         in="flood"
         in2="SourceGraphic"
         operator="in"
         result="composite1"
         id="feComposite9828" />
      <feGaussianBlur
         in="composite1"
         stdDeviation="8.2"
         result="blur"
         id="feGaussianBlur9830" />
      <feOffset
         dx="-6"
         dy="10.0153"
         result="offset"
         id="feOffset9832" />
      <feComposite
         in="SourceGraphic"
         in2="offset"
         operator="over"
         result="composite2"
         id="feComposite9834" />
    </filter>
  </defs>
  <g
     inkscape:groupmode="layer"
     id="layer2"
     inkscape:label="Tablet"
     style="display:inline"
     sodipodi:insensitive="true">
    <g
       id="g9860"
       transform="translate(-60.703883,153.52977)"
       inkscape:export-filename="/data/repos/starting-projects/zynthian-nakama/docs/pics/mockups/pads-area.png"
       inkscape:export-xdpi="96"
       inkscape:export-ydpi="96">
      <g
         id="g8504"
         style="filter:url(#filter9836)">
        <rect
           style="fill:#cccccc;fill-rule:evenodd;stroke-width:0.264583"
           id="rect8141"
           width="453.49582"
           height="347.66251"
           x="60.703884"
           y="-153.52977"
           rx="19.84375" />
        <rect
           style="fill:#000000;fill-rule:evenodd;stroke-width:0.264583"
           id="rect7301"
           width="449.79166"
           height="343.95834"
           x="62.555965"
           y="-151.67769"
           rx="18.520834" />
        <rect
           style="fill:#ffffff;fill-rule:evenodd;stroke-width:0.264583"
           id="rect7117"
           width="423.33334"
           height="317.5"
           x="75.785042"
           y="-138.44859"
           rx="6.6145835" />
      </g>
    </g>
  </g>
  <g
     inkscape:groupmode="layer"
     id="layer3"
     inkscape:label="Colors"
     style="display:inline"
     sodipodi:insensitive="true">
    <g
       id="g210072"
       transform="translate(-36.316436,158.2923)">
      <circle
         style="fill:#c3ceda;fill-opacity:1;stroke-width:0.264583"
         id="path10116"
         cx="77.591553"
         cy="-200.00809"
         r="13.229167" />
      <circle
         style="fill:#738fa7;fill-opacity:1;stroke-width:0.264583"
         id="circle10300"
         cx="114.6332"
         cy="-200.00809"
         r="13.229167" />
      <circle
         style="fill:#0c4160;fill-opacity:1;stroke-width:0.264583"
         id="circle10302"
         cx="151.6749"
         cy="-200.00809"
         r="13.229167" />
      <circle
         style="fill:#071330;fill-opacity:1;stroke-width:0.264583"
         id="circle10304"
         cx="188.7166"
         cy="-200.00809"
         r="13.229167" />
      <circle
         style="fill:#c70000;fill-opacity:1;stroke-width:0.264583"
         id="circle10306"
         cx="225.7583"
         cy="-200.00809"
         r="13.229167" />
      <circle
         style="fill:#ffb300;fill-opacity:1;stroke-width:0.264583"
         id="circle11295"
         cx="262.79999"
         cy="-200.00809"
         r="13.229167" />
      <circle
         style="fill:#5cb03b;fill-opacity:1;stroke-width:0.264583"
         id="circle11297"
         cx="300.37076"
         cy="-200.00809"
         r="13.229167" />
      <g
         id="g44385"
         transform="translate(37.041668)">
        <circle
           style="fill:#051b29;fill-opacity:1;stroke-width:0.264583"
           id="circle11299"
           cx="337.41235"
           cy="-200.00809"
           r="13.229167" />
        <circle
           style="fill:#808080;stroke-width:0.264583"
           id="circle11301"
           cx="374.45395"
           cy="-200.00809"
           r="13.229167" />
        <circle
           style="fill:#cccccc;stroke-width:0.264583"
           id="circle11303"
           cx="411.49554"
           cy="-200.00809"
           r="13.229167" />
      </g>
      <circle
         style="fill:#1c71d8;stroke-width:0.264583"
         id="circle17312"
         cx="337.41235"
         cy="-200.00809"
         r="13.229167" />
    </g>
  </g>
  <g
     inkscape:label="Mocks"
     inkscape:groupmode="layer"
     id="layer1"
     transform="translate(-60.703884,153.52977)"
     style="display:inline">
    <rect
       style="fill:#051b29;fill-opacity:1;fill-rule:evenodd;stroke-width:0.264583"
       id="rect7117-1"
       width="423.33334"
       height="317.5"
       x="75.785042"
       y="-138.44859"
       rx="6.6145835" />
    <path
       id="rect124532"
       style="fill:#0c4160;fill-opacity:1;fill-rule:evenodd;stroke-width:0.63473"
       d="M 82,57 C 68.15,57 57,68.15 57,82 V 182.24023 H 1657 V 82 c 0,-13.85 -11.15,-25 -25,-25 z"
       transform="matrix(0.26458333,0,0,0.26458333,60.703884,-153.52977)"
       inkscape:export-filename="/home/oscar/repos/starting-proyects/zynthian-nakama/docs/pics/mockups/pads-area.png"
       inkscape:export-xdpi="96"
       inkscape:export-ydpi="96"
       sodipodi:insensitive="true" />
    <path
       d="m 482.4528,-117.01492 a 2.74383,2.74383 0 1 0 0,5.48766 2.74383,2.74383 0 1 0 0,-5.48766 z m 0,-7.8395 a 2.7438282,2.7438282 0 1 0 0,5.48765 2.7438282,2.7438282 0 1 0 0,-5.48765 z m 2.74383,-5.09568 a 2.74383,2.74383 0 1 0 -5.48766,0 2.74383,2.74383 0 1 0 5.48766,0 z"
       id="path129732"
       style="fill:#c3ceda;fill-opacity:1;stroke-width:0.0489969"
       inkscape:export-filename="/data/repos/starting-projects/zynthian-nakama/docs/pics/mockups/pads-area.png"
       inkscape:export-xdpi="96"
       inkscape:export-ydpi="96" />
    <path
       d="m 138.03632,-132.69392 c -1.94579,0 -3.52778,1.58199 -3.52778,3.52778 v 14.11111 c 0,1.94579 1.58199,3.52778 3.52778,3.52778 h 24.69444 c 1.94579,0 3.52777,-1.58199 3.52777,-3.52778 v -14.11111 c 0,-1.94579 -1.58198,-3.52778 -3.52777,-3.52778 z m 0.88194,3.52778 h 1.76389 c 0.48507,0 0.88195,0.39688 0.88195,0.88194 v 1.76389 c 0,0.48507 -0.39688,0.88195 -0.88195,0.88195 h -1.76389 c -0.48507,0 -0.88194,-0.39688 -0.88194,-0.88195 v -1.76389 c 0,-0.48506 0.39687,-0.88194 0.88194,-0.88194 z m -0.88194,6.17361 c 0,-0.48507 0.39687,-0.88195 0.88194,-0.88195 h 1.76389 c 0.48507,0 0.88195,0.39688 0.88195,0.88195 v 1.76389 c 0,0.48507 -0.39688,0.88194 -0.88195,0.88194 h -1.76389 c -0.48507,0 -0.88194,-0.39687 -0.88194,-0.88194 z m 0.88194,4.40972 h 1.76389 c 0.48507,0 0.88195,0.39688 0.88195,0.88195 v 1.76388 c 0,0.48508 -0.39688,0.88195 -0.88195,0.88195 h -1.76389 c -0.48507,0 -0.88194,-0.39687 -0.88194,-0.88195 v -1.76388 c 0,-0.48507 0.39687,-0.88195 0.88194,-0.88195 z m 4.40972,-9.70139 c 0,-0.48506 0.39688,-0.88194 0.88195,-0.88194 h 1.76389 c 0.48507,0 0.88194,0.39688 0.88194,0.88194 v 1.76389 c 0,0.48507 -0.39687,0.88195 -0.88194,0.88195 h -1.76389 c -0.48507,0 -0.88195,-0.39688 -0.88195,-0.88195 z m 0.88195,4.40972 h 1.76389 c 0.48507,0 0.88194,0.39688 0.88194,0.88195 v 1.76389 c 0,0.48507 -0.39687,0.88194 -0.88194,0.88194 h -1.76389 c -0.48507,0 -0.88195,-0.39687 -0.88195,-0.88194 v -1.76389 c 0,-0.48507 0.39688,-0.88195 0.88195,-0.88195 z m 5.29166,-5.29166 h 1.76389 c 0.48507,0 0.88195,0.39688 0.88195,0.88194 v 1.76389 c 0,0.48507 -0.39688,0.88195 -0.88195,0.88195 h -1.76389 c -0.48506,0 -0.88194,-0.39688 -0.88194,-0.88195 v -1.76389 c 0,-0.48506 0.39688,-0.88194 0.88194,-0.88194 z m -0.88194,6.17361 c 0,-0.48507 0.39688,-0.88195 0.88194,-0.88195 h 1.76389 c 0.48507,0 0.88195,0.39688 0.88195,0.88195 v 1.76389 c 0,0.48507 -0.39688,0.88194 -0.88195,0.88194 h -1.76389 c -0.48506,0 -0.88194,-0.39687 -0.88194,-0.88194 z m 6.17361,-6.17361 h 1.76389 c 0.48507,0 0.88195,0.39688 0.88195,0.88194 v 1.76389 c 0,0.48507 -0.39688,0.88195 -0.88195,0.88195 h -1.76389 c -0.48507,0 -0.88194,-0.39688 -0.88194,-0.88195 v -1.76389 c 0,-0.48506 0.39687,-0.88194 0.88194,-0.88194 z m -0.88194,6.17361 c 0,-0.48507 0.39687,-0.88195 0.88194,-0.88195 h 1.76389 c 0.48507,0 0.88195,0.39688 0.88195,0.88195 v 1.76389 c 0,0.48507 -0.39688,0.88194 -0.88195,0.88194 h -1.76389 c -0.48507,0 -0.88194,-0.39687 -0.88194,-0.88194 z m 6.17361,-6.17361 h 1.76387 c 0.48509,0 0.88196,0.39688 0.88196,0.88194 v 1.76389 c 0,0.48507 -0.39687,0.88195 -0.88196,0.88195 h -1.76387 c -0.48508,0 -0.88196,-0.39688 -0.88196,-0.88195 v -1.76389 c 0,-0.48506 0.39688,-0.88194 0.88196,-0.88194 z m -0.88196,6.17361 c 0,-0.48507 0.39688,-0.88195 0.88196,-0.88195 h 1.76387 c 0.48509,0 0.88196,0.39688 0.88196,0.88195 v 1.76389 c 0,0.48507 -0.39687,0.88194 -0.88196,0.88194 h -1.76387 c -0.48508,0 -0.88196,-0.39687 -0.88196,-0.88194 z m 0.88196,4.40972 h 1.76387 c 0.48509,0 0.88196,0.39688 0.88196,0.88195 v 1.76388 c 0,0.48508 -0.39687,0.88195 -0.88196,0.88195 h -1.76387 c -0.48508,0 -0.88196,-0.39687 -0.88196,-0.88195 v -1.76388 c 0,-0.48507 0.39688,-0.88195 0.88196,-0.88195 z m -15.71972,-0.14155 h 1.76389 c 0.48507,0 0.88194,0.39688 0.88194,0.88195 v 1.76389 c 0,0.48507 -0.39687,0.88194 -0.88194,0.88194 h -1.76389 c -0.48507,0 -0.88195,-0.39687 -0.88195,-0.88194 v -1.76389 c 0,-0.48507 0.39688,-0.88195 0.88195,-0.88195 z m 4.19067,0.91468 c 0,-0.48507 0.39687,-0.88194 0.88194,-0.88194 h 1.76389 c 0.48507,0 0.88194,0.39687 0.88194,0.88194 v 1.76389 c 0,0.48507 -0.39687,0.88195 -0.88194,0.88195 h -1.76389 c -0.48507,0 -0.88194,-0.39688 -0.88194,-0.88195 z m 5.29166,0 c 0,-0.48507 0.39688,-0.88194 0.88195,-0.88194 h 1.76389 c 0.48507,0 0.88194,0.39687 0.88194,0.88194 v 1.76389 c 0,0.48507 -0.39687,0.88195 -0.88194,0.88195 h -1.76389 c -0.48507,0 -0.88195,-0.39688 -0.88195,-0.88195 z"
       id="path134529"
       style="fill:#c3ceda;fill-opacity:1;stroke-width:0.0551215"
       sodipodi:nodetypes="ssssssssssssssssssssssssssssssssssssssssssssssssssssssssssssssssssssssssssssssssssssssssssssssssssssssssssssssssssssssssssssssssssssssssssssssss"
       inkscape:export-filename="/data/repos/starting-projects/zynthian-nakama/docs/pics/mockups/pads-area.png"
       inkscape:export-xdpi="96"
       inkscape:export-ydpi="96" />
    <path
       d="m 186.23909,-132.69392 c -0.73174,0 -1.32292,0.59118 -1.32292,1.32292 v 2.26136 c -1.16995,0.50849 -1.98437,1.67431 -1.98437,3.0303 0,1.35599 0.81442,2.52181 1.98437,3.03031 v 10.19886 c 0,0.73174 0.59118,1.32292 1.32292,1.32292 0.73174,0 1.32292,-0.59118 1.32292,-1.32292 v -10.19886 c 1.16995,-0.5085 1.98437,-1.67432 1.98437,-3.0303 0,-1.35599 -0.81442,-2.52182 -1.98437,-3.03031 v -2.26136 c 0,-0.73174 -0.59118,-1.32292 -1.32292,-1.32292 z m 0,5.29167 a 1.3229166,1.3229166 0 1 1 0,2.64583 1.3229166,1.3229166 0 1 1 0,-2.64583 z m 6.6146,7.9375 a 1.3229166,1.3229166 0 1 1 0,2.64582 1.3229166,1.3229166 0 1 1 0,-2.64582 z m 3.30728,1.32292 c 0,-1.356 -0.81442,-2.52181 -1.98438,-3.03031 V -131.371 c 0,-0.73174 -0.59117,-1.32292 -1.3229,-1.32292 -0.73175,0 -1.32292,0.59118 -1.32292,1.32292 v 10.19886 c -1.16997,0.5085 -1.98439,1.67431 -1.98439,3.03031 0,1.35598 0.81442,2.5218 1.98439,3.0303 v 2.26136 c 0,0.73174 0.59117,1.32292 1.32292,1.32292 0.73173,0 1.3229,-0.59118 1.3229,-1.32292 v -2.26136 c 1.16996,-0.5085 1.98438,-1.67432 1.98438,-3.0303 z m 1.98437,-6.61459 a 1.322925,1.322925 0 1 1 2.64585,0 1.322925,1.322925 0 1 1 -2.64585,0 z m 2.64585,3.03031 c 1.16995,-0.5085 1.98437,-1.67431 1.98437,-3.03031 0,-1.35599 -0.81442,-2.52181 -1.98437,-3.0303 v -3.58428 c 0,-0.73174 -0.59119,-1.32292 -1.32292,-1.32292 -0.73174,0 -1.32293,0.59118 -1.32293,1.32292 v 3.58428 c -1.16995,0.50849 -1.98437,1.67431 -1.98437,3.0303 0,1.356 0.81442,2.52181 1.98437,3.03031 v 8.87594 c 0,0.73174 0.59119,1.32292 1.32293,1.32292 0.73173,0 1.32292,-0.59118 1.32292,-1.32292 z"
       id="path134565"
       style="fill:#c3ceda;fill-opacity:1;stroke-width:0.0413411"
       inkscape:export-filename="/data/repos/starting-projects/zynthian-nakama/docs/pics/mockups/pads-area.png"
       inkscape:export-xdpi="96"
       inkscape:export-ydpi="96" />
    <path
       d="m 232.34525,-127.30849 c 0.3004,-0.26652 0.4188,-0.68534 0.2623,-1.05763 -0.097,-0.22421 -0.2031,-0.4442 -0.3215,-0.65572 l -0.1311,-0.22845 c -0.127,-0.21153 -0.2666,-0.41882 -0.4146,-0.61765 -0.2412,-0.32152 -0.6642,-0.42728 -1.045,-0.30037 l -1.193,0.39344 c -0.4526,-0.37229 -0.973,-0.67688 -1.5314,-0.88418 l -0.2581,-1.22684 c -0.08,-0.39344 -0.385,-0.7065 -0.7826,-0.75303 -0.2792,-0.0381 -0.5627,-0.055 -0.8504,-0.055 h -0.03 c -0.2876,0 -0.5711,0.0169 -0.8503,0.0508 -0.3977,0.0465 -0.7023,0.36382 -0.7826,0.75303 l -0.2581,1.23107 c -0.5627,0.21153 -1.0788,0.51189 -1.5315,0.88418 l -1.1972,-0.38921 c -0.3807,-0.12691 -0.8038,-0.0211 -1.0449,0.30037 -0.1481,0.19883 -0.2877,0.40612 -0.4188,0.61765 l -0.127,0.22422 c -0.1184,0.21152 -0.2242,0.43151 -0.3215,0.65995 -0.1565,0.36806 -0.038,0.78688 0.2623,1.05763 l 0.9392,0.83764 c -0.047,0.28344 -0.072,0.57958 -0.072,0.87995 0,0.30036 0.025,0.5965 0.072,0.88417 l -0.9392,0.83764 c -0.3004,0.26652 -0.4188,0.68534 -0.2623,1.05763 0.097,0.22421 0.2031,0.4442 0.3215,0.65996 l 0.127,0.21998 c 0.1269,0.21576 0.2665,0.41882 0.4188,0.61766 0.2411,0.32151 0.6642,0.42728 1.0449,0.30036 l 1.193,-0.39344 c 0.4527,0.37229 0.973,0.67688 1.5315,0.88418 l 0.258,1.23108 c 0.08,0.39343 0.385,0.70649 0.7827,0.75302 0.2834,0.0338 0.5711,0.0508 0.863,0.0508 0.2919,0 0.5796,-0.0169 0.863,-0.0508 0.3977,-0.0465 0.7023,-0.36382 0.7827,-0.75302 l 0.258,-1.23108 c 0.5627,-0.21153 1.0788,-0.51189 1.5315,-0.88418 l 1.193,0.39344 c 0.3807,0.12692 0.8038,0.0212 1.0449,-0.30036 0.1481,-0.19884 0.2877,-0.4019 0.4146,-0.61766 l 0.1311,-0.22845 c 0.1185,-0.21152 0.2243,-0.43151 0.3215,-0.65572 0.1566,-0.36806 0.038,-0.78688 -0.2622,-1.05763 l -0.9392,-0.83764 c 0.046,-0.28767 0.072,-0.58381 0.072,-0.88417 0,-0.30037 -0.025,-0.59651 -0.072,-0.88418 l 0.9392,-0.83764 z m -8.3129,1.72182 a 2.03065,2.03065 0 1 1 4.0613,0 2.03065,2.03065 0 1 1 -4.0613,0 z m 16.6132,13.72798 c 0.2665,0.30037 0.6853,0.41882 1.0576,0.26229 0.2242,-0.0973 0.4442,-0.20306 0.6557,-0.32151 l 0.2285,-0.13115 c 0.2115,-0.12692 0.4188,-0.26652 0.6176,-0.41459 0.3215,-0.24114 0.4273,-0.66419 0.3004,-1.04494 l -0.3935,-1.193 c 0.3723,-0.45266 0.6769,-0.97301 0.8842,-1.53144 l 1.2311,-0.25806 c 0.3934,-0.0804 0.7065,-0.38498 0.753,-0.78264 0.034,-0.28345 0.051,-0.57112 0.051,-0.86303 0,-0.2919 -0.017,-0.57957 -0.051,-0.86302 -0.046,-0.39767 -0.3638,-0.70226 -0.753,-0.78264 l -1.2311,-0.26229 c -0.2115,-0.56266 -0.5119,-1.07878 -0.8842,-1.53145 l 0.3935,-1.193 c 0.1269,-0.38074 0.021,-0.80379 -0.3004,-1.04493 -0.1988,-0.14807 -0.4061,-0.28768 -0.6176,-0.41882 l -0.2243,-0.12692 c -0.2115,-0.11845 -0.4315,-0.22421 -0.6599,-0.32151 -0.3681,-0.15653 -0.7869,-0.0381 -1.0576,0.26228 l -0.8377,0.93918 c -0.2877,-0.0465 -0.5838,-0.0719 -0.8841,-0.0719 -0.3004,0 -0.5965,0.0254 -0.8842,0.0719 l -0.8377,-0.93918 c -0.2665,-0.30036 -0.6853,-0.41881 -1.0576,-0.26228 -0.2242,0.0973 -0.4442,0.20306 -0.6599,0.32151 l -0.22,0.12692 c -0.2158,0.12691 -0.4188,0.26652 -0.6177,0.41882 -0.3215,0.24114 -0.4273,0.66419 -0.3004,1.04493 l 0.3935,1.193 c -0.3723,0.45267 -0.6769,0.97302 -0.8842,1.53145 l -1.2311,0.25383 c -0.3934,0.0804 -0.7065,0.38497 -0.753,0.78264 -0.034,0.28344 -0.051,0.57112 -0.051,0.86302 0,0.29191 0.017,0.57958 0.051,0.86302 0.046,0.39767 0.3638,0.70227 0.753,0.78265 l 1.2311,0.25806 c 0.2115,0.56266 0.5119,1.07878 0.8842,1.53144 l -0.3935,1.193 c -0.1269,0.38075 -0.021,0.8038 0.3004,1.04494 0.1989,0.14807 0.4019,0.28767 0.6177,0.41459 l 0.2284,0.13114 c 0.2115,0.11846 0.4315,0.22422 0.6557,0.32152 0.3681,0.15653 0.7869,0.0381 1.0577,-0.26229 l 0.8376,-0.93917 c 0.2877,0.0465 0.5838,0.0719 0.8842,0.0719 0.3004,0 0.5965,-0.0254 0.8842,-0.0719 l 0.8376,0.93917 z m -1.7218,-8.31294 a 2.030645,2.030645 0 1 1 0,4.06129 2.030645,2.030645 0 1 1 0,-4.06129 z"
       id="path134583"
       style="fill:#c3ceda;fill-opacity:1;stroke-width:0.042305"
       inkscape:export-filename="/data/repos/starting-projects/zynthian-nakama/docs/pics/mockups/pads-area.png"
       inkscape:export-xdpi="96"
       inkscape:export-ydpi="96" />
    <rect
       style="font-variation-settings:normal;opacity:1;vector-effect:none;fill:#738fa7;fill-opacity:1;stroke:none;stroke-width:5.43816;stroke-linecap:round;stroke-linejoin:round;stroke-miterlimit:4;stroke-dasharray:none;stroke-dashoffset:0;stroke-opacity:1;-inkscape-stroke:none;stop-color:#000000;stop-opacity:1"
       id="rect135976"
       width="39.6875"
       height="33.136551"
       x="85.896301"
       y="-138.67886"
       inkscape:export-filename="/data/repos/starting-projects/zynthian-nakama/docs/pics/mockups/pads-area.png"
       inkscape:export-xdpi="96"
       inkscape:export-ydpi="96" />
    <path
       d="m 114.81148,-129.67011 v 6.04762 h -7.55953 v -6.04762 z m 0,9.07143 v 6.04762 h -7.55953 v -6.04762 z m -10.58334,-3.02381 h -7.559512 v -6.04762 h 7.559512 z m -7.559512,3.02381 h 7.559512 v 6.04762 h -7.559512 z m 0,-12.09524 c -1.66782,0 -3.02381,1.35599 -3.02381,3.02381 v 15.11905 c 0,1.66782 1.35599,3.02381 3.02381,3.02381 h 18.142852 c 1.66782,0 3.0238,-1.35599 3.0238,-3.02381 v -15.11905 c 0,-1.66782 -1.35598,-3.02381 -3.0238,-3.02381 z"
       id="path134538"
       style="fill:#071330;fill-opacity:1;stroke-width:0.047247"
       inkscape:export-filename="/data/repos/starting-projects/zynthian-nakama/docs/pics/mockups/pads-area.png"
       inkscape:export-xdpi="96"
       inkscape:export-ydpi="96" />
  </g>
</svg>
